<svg width="20" height="20" viewBox="0 0 20 20" fill="none" xmlns="http://www.w3.org/2000/svg">
<path d="M9.75 0C4.365 0 0 4.365 0 9.75C0 15.135 4.365 19.5 9.75 19.5C15.135 19.5 19.5 15.135 19.5 9.75C19.5 4.365 15.135 0 9.75 0ZM5.89078 5.35969L10.8127 8.68781C11.1376 8.92181 11.3573 9.2743 11.4243 9.66904C11.4913 10.0638 11.4002 10.469 11.1707 10.7971C10.9413 11.1252 10.5918 11.3498 10.1981 11.4223C9.80429 11.4947 9.39781 11.4093 9.06656 11.1844C8.92103 11.0817 8.79419 10.9549 8.69156 10.8094L5.36344 5.8875C5.31221 5.81411 5.28844 5.72503 5.29631 5.63588C5.30417 5.54672 5.34316 5.46318 5.40645 5.39989C5.46974 5.3366 5.55328 5.29761 5.64244 5.28974C5.73159 5.28188 5.82067 5.30564 5.89406 5.35687L5.89078 5.35969ZM9.75 18C5.20312 18 1.5 14.2992 1.5 9.75C1.49614 8.64041 1.718 7.54163 2.1521 6.52048C2.58621 5.49933 3.22348 4.57714 4.02516 3.81C4.0875 3.74785 4.1616 3.69872 4.24312 3.6655C4.32465 3.63227 4.41197 3.61561 4.50001 3.61648C4.58804 3.61735 4.67501 3.63574 4.75587 3.67057C4.83672 3.7054 4.90983 3.75598 4.97093 3.81935C5.03204 3.88273 5.07992 3.95764 5.11177 4.03971C5.14363 4.12178 5.15883 4.20937 5.15649 4.29737C5.15415 4.38537 5.13431 4.47203 5.09814 4.55229C5.06196 4.63255 5.01017 4.70481 4.94578 4.76484C4.27306 5.40874 3.73829 6.1827 3.37398 7.03969C3.00967 7.89668 2.82342 8.81879 2.82656 9.75C2.82656 13.5675 5.9325 16.6734 9.75 16.6734C13.5675 16.6734 16.6734 13.5675 16.6734 9.75C16.6734 6.15609 13.9209 3.19312 10.4133 2.85938V5.4375C10.4133 5.61341 10.3434 5.78212 10.219 5.90651C10.0946 6.0309 9.92591 6.10078 9.75 6.10078C9.57409 6.10078 9.40538 6.0309 9.28099 5.90651C9.1566 5.78212 9.08672 5.61341 9.08672 5.4375V2.16328C9.08672 1.98737 9.1566 1.81866 9.28099 1.69427C9.40538 1.56988 9.57409 1.5 9.75 1.5C14.2992 1.5 18 5.20312 18 9.75C18 14.2969 14.2992 18 9.75 18Z" fill="#323238"/>
</svg>
